<?xml version="1.0" encoding="UTF-8"?>
<svg width="16px" height="16px" viewBox="0 0 16 16" version="1.1" xmlns="http://www.w3.org/2000/svg" xmlns:xlink="http://www.w3.org/1999/xlink">
    <!-- Generator: Sketch 63.1 (92452) - https://sketch.com -->
    <title>Combined Shape</title>
    <desc>Created with Sketch.</desc>
    <g id="Pages" stroke="none" stroke-width="1" fill="currentColor" fill-rule="evenodd" fill-opacity="0.25">
        <path d="M8.90807434,-0.061700322 C12.5498065,-0.061700322 15.5020137,2.8905069 15.5020137,6.53223907 C15.5020137,9.9115599 12.959931,12.6971455 9.68372142,13.0810399 L9.68383192,16.9625421 C9.68383192,17.3909812 9.33651342,17.7382997 8.90807434,17.7382997 C8.47963526,17.7382997 8.13231677,17.3909812 8.13231677,16.9625421 L8.13242726,13.0810399 C4.8562177,12.6971455 2.31413495,9.9115599 2.31413495,6.53223907 C2.31413495,2.8905069 5.26634217,-0.061700322 8.90807434,-0.061700322 Z M8.87871855,1.18051619 C5.90642252,1.18051619 3.49690051,3.5900382 3.49690051,6.56233423 C3.49690051,9.53463026 5.90642252,11.9441523 8.87871855,11.9441523 C11.8510146,11.9441523 14.2605366,9.53463026 14.2605366,6.56233423 C14.2605366,3.5900382 11.8510146,1.18051619 8.87871855,1.18051619 Z" id="Combined-Shape" fill="#0A2342" fill-rule="nonzero" transform="translate(8.908074, 8.838300) rotate(-45.000000) translate(-8.908074, -8.838300) "></path>
    </g>
</svg>